<mxfile host="65bd71144e">
    <diagram id="sFscDbFX9f5W7BrS0_ol" name="Page-1">
        <mxGraphModel dx="1980" dy="1739" grid="1" gridSize="10" guides="1" tooltips="1" connect="1" arrows="1" fold="1" page="1" pageScale="1" pageWidth="850" pageHeight="1100" math="0" shadow="0">
            <root>
                <mxCell id="0"/>
                <mxCell id="1" parent="0"/>
                <mxCell id="51" style="edgeStyle=none;html=1;" parent="1" source="44" target="50" edge="1">
                    <mxGeometry relative="1" as="geometry"/>
                </mxCell>
                <mxCell id="52" value="1 GET: google -&amp;gt;&amp;nbsp;" style="edgeLabel;html=1;align=center;verticalAlign=middle;resizable=0;points=[];" parent="51" vertex="1" connectable="0">
                    <mxGeometry x="-0.1807" y="2" relative="1" as="geometry">
                        <mxPoint x="-28" y="-33" as="offset"/>
                    </mxGeometry>
                </mxCell>
                <mxCell id="44" value="google" style="rounded=0;whiteSpace=wrap;html=1;" parent="1" vertex="1">
                    <mxGeometry x="220" y="90" width="120" height="60" as="geometry"/>
                </mxCell>
                <mxCell id="53" style="edgeStyle=none;html=1;entryX=1;entryY=0.75;entryDx=0;entryDy=0;dashed=1;" parent="1" source="50" target="44" edge="1">
                    <mxGeometry relative="1" as="geometry"/>
                </mxCell>
                <mxCell id="54" value="2 trả về các file: index.html, style.css, script.js" style="edgeLabel;html=1;align=center;verticalAlign=middle;resizable=0;points=[];rotation=-15;" parent="53" vertex="1" connectable="0">
                    <mxGeometry x="0.293" y="-2" relative="1" as="geometry">
                        <mxPoint x="63" as="offset"/>
                    </mxGeometry>
                </mxCell>
                <mxCell id="50" value="Server" style="ellipse;shape=cloud;whiteSpace=wrap;html=1;" parent="1" vertex="1">
                    <mxGeometry x="550" y="-20" width="120" height="80" as="geometry"/>
                </mxCell>
                <mxCell id="55" style="edgeStyle=none;html=1;entryX=0;entryY=0.5;entryDx=0;entryDy=0;dashed=1;" parent="1" source="44" target="44" edge="1">
                    <mxGeometry relative="1" as="geometry">
                        <Array as="points">
                            <mxPoint x="110" y="170"/>
                        </Array>
                    </mxGeometry>
                </mxCell>
                <mxCell id="56" value="Javascript xử lý dữ liệu ở client" style="edgeLabel;html=1;align=center;verticalAlign=middle;resizable=0;points=[];" parent="55" vertex="1" connectable="0">
                    <mxGeometry x="-0.0238" y="-1" relative="1" as="geometry">
                        <mxPoint x="-39" y="1" as="offset"/>
                    </mxGeometry>
                </mxCell>
                <mxCell id="59" style="edgeStyle=none;html=1;entryX=0.96;entryY=0.7;entryDx=0;entryDy=0;entryPerimeter=0;dashed=1;" parent="1" source="50" target="50" edge="1">
                    <mxGeometry relative="1" as="geometry"/>
                </mxCell>
                <mxCell id="61" value="&lt;span style=&quot;font-size: 11px ; background-color: rgb(255 , 255 , 255)&quot;&gt;GET, POST, PUT, DELETE ...&lt;/span&gt;" style="text;html=1;align=center;verticalAlign=middle;resizable=0;points=[];autosize=1;strokeColor=none;fillColor=none;" parent="1" vertex="1">
                    <mxGeometry x="320" y="-115" width="160" height="20" as="geometry"/>
                </mxCell>
                <mxCell id="62" value="POST: JSON: {search: &quot;helloword&quot;}&lt;br&gt;GET: string https://google.com?search=helloword" style="text;html=1;align=center;verticalAlign=middle;resizable=0;points=[];autosize=1;strokeColor=none;fillColor=none;" parent="1" vertex="1">
                    <mxGeometry x="480" y="-140" width="280" height="30" as="geometry"/>
                </mxCell>
                <mxCell id="63" value="Java&lt;br&gt;Javascript&lt;br&gt;C#&lt;br&gt;C++&lt;br&gt;Python" style="text;html=1;align=center;verticalAlign=middle;resizable=0;points=[];autosize=1;strokeColor=none;fillColor=none;" parent="1" vertex="1">
                    <mxGeometry x="165" y="240" width="70" height="80" as="geometry"/>
                </mxCell>
                <mxCell id="66" value="" style="edgeStyle=none;html=1;dashed=1;" parent="1" source="64" target="65" edge="1">
                    <mxGeometry relative="1" as="geometry"/>
                </mxCell>
                <mxCell id="69" value="" style="edgeStyle=none;html=1;dashed=1;" parent="1" source="64" target="65" edge="1">
                    <mxGeometry relative="1" as="geometry"/>
                </mxCell>
                <mxCell id="70" style="edgeStyle=none;html=1;dashed=1;" parent="1" source="64" edge="1">
                    <mxGeometry relative="1" as="geometry">
                        <mxPoint x="480" y="270" as="targetPoint"/>
                    </mxGeometry>
                </mxCell>
                <mxCell id="86" style="edgeStyle=none;html=1;dashed=1;" parent="1" source="64" edge="1">
                    <mxGeometry relative="1" as="geometry">
                        <mxPoint x="480" y="360" as="targetPoint"/>
                    </mxGeometry>
                </mxCell>
                <mxCell id="88" style="edgeStyle=none;html=1;dashed=1;" parent="1" source="64" edge="1">
                    <mxGeometry relative="1" as="geometry">
                        <mxPoint x="355" y="420" as="targetPoint"/>
                    </mxGeometry>
                </mxCell>
                <mxCell id="64" value="Javascript" style="text;html=1;align=center;verticalAlign=middle;resizable=0;points=[];autosize=1;strokeColor=none;fillColor=none;" parent="1" vertex="1">
                    <mxGeometry x="320" y="260" width="70" height="20" as="geometry"/>
                </mxCell>
                <mxCell id="68" value="" style="edgeStyle=none;html=1;dashed=1;" parent="1" source="65" target="67" edge="1">
                    <mxGeometry relative="1" as="geometry"/>
                </mxCell>
                <mxCell id="65" value="Kiểu dữ liệu" style="text;html=1;align=center;verticalAlign=middle;resizable=0;points=[];autosize=1;strokeColor=none;fillColor=none;" parent="1" vertex="1">
                    <mxGeometry x="480" y="210" width="80" height="20" as="geometry"/>
                </mxCell>
                <mxCell id="67" value="string, number, array, object, ..." style="text;html=1;align=center;verticalAlign=middle;resizable=0;points=[];autosize=1;strokeColor=none;fillColor=none;" parent="1" vertex="1">
                    <mxGeometry x="600" y="210" width="180" height="20" as="geometry"/>
                </mxCell>
                <mxCell id="73" style="edgeStyle=none;html=1;dashed=1;" parent="1" source="71" edge="1">
                    <mxGeometry relative="1" as="geometry">
                        <mxPoint x="610" y="260" as="targetPoint"/>
                    </mxGeometry>
                </mxCell>
                <mxCell id="75" style="edgeStyle=none;html=1;dashed=1;" parent="1" source="71" edge="1">
                    <mxGeometry relative="1" as="geometry">
                        <mxPoint x="610" y="280" as="targetPoint"/>
                    </mxGeometry>
                </mxCell>
                <mxCell id="77" style="edgeStyle=none;html=1;dashed=1;" parent="1" source="71" edge="1">
                    <mxGeometry relative="1" as="geometry">
                        <mxPoint x="610" y="300" as="targetPoint"/>
                    </mxGeometry>
                </mxCell>
                <mxCell id="71" value="Khai báo biến" style="text;html=1;align=center;verticalAlign=middle;resizable=0;points=[];autosize=1;strokeColor=none;fillColor=none;" parent="1" vertex="1">
                    <mxGeometry x="475" y="260" width="90" height="20" as="geometry"/>
                </mxCell>
                <mxCell id="74" value="var (ít sử dụng)" style="text;html=1;align=center;verticalAlign=middle;resizable=0;points=[];autosize=1;strokeColor=none;fillColor=none;" parent="1" vertex="1">
                    <mxGeometry x="610" y="250" width="100" height="20" as="geometry"/>
                </mxCell>
                <mxCell id="76" value="const" style="text;html=1;align=center;verticalAlign=middle;resizable=0;points=[];autosize=1;strokeColor=none;fillColor=none;" parent="1" vertex="1">
                    <mxGeometry x="610" y="270" width="40" height="20" as="geometry"/>
                </mxCell>
                <mxCell id="78" value="let" style="text;html=1;align=center;verticalAlign=middle;resizable=0;points=[];autosize=1;strokeColor=none;fillColor=none;" parent="1" vertex="1">
                    <mxGeometry x="605" y="300" width="30" height="20" as="geometry"/>
                </mxCell>
                <mxCell id="87" value="function" style="text;html=1;align=center;verticalAlign=middle;resizable=0;points=[];autosize=1;strokeColor=none;fillColor=none;" parent="1" vertex="1">
                    <mxGeometry x="480" y="350" width="60" height="20" as="geometry"/>
                </mxCell>
                <mxCell id="89" value="HTML" style="text;html=1;align=center;verticalAlign=middle;resizable=0;points=[];autosize=1;strokeColor=none;fillColor=none;" parent="1" vertex="1">
                    <mxGeometry x="315" y="430" width="50" height="20" as="geometry"/>
                </mxCell>
                <mxCell id="90" value="Text" style="text;html=1;align=center;verticalAlign=middle;resizable=0;points=[];autosize=1;strokeColor=none;fillColor=none;" parent="1" vertex="1">
                    <mxGeometry x="560" y="410" width="40" height="20" as="geometry"/>
                </mxCell>
                <mxCell id="92" value="fncA" style="shape=umlLifeline;perimeter=lifelinePerimeter;whiteSpace=wrap;html=1;container=1;collapsible=0;recursiveResize=0;outlineConnect=0;" vertex="1" parent="1">
                    <mxGeometry x="315" y="560" width="100" height="540" as="geometry"/>
                </mxCell>
                <mxCell id="102" value="" style="html=1;points=[];perimeter=orthogonalPerimeter;" vertex="1" parent="92">
                    <mxGeometry x="45" y="60" width="10" height="50" as="geometry"/>
                </mxCell>
                <mxCell id="109" value="" style="html=1;points=[];perimeter=orthogonalPerimeter;" vertex="1" parent="92">
                    <mxGeometry x="45" y="110" width="10" height="80" as="geometry"/>
                </mxCell>
                <mxCell id="110" value="" style="html=1;points=[];perimeter=orthogonalPerimeter;" vertex="1" parent="92">
                    <mxGeometry x="45" y="170" width="10" height="40" as="geometry"/>
                </mxCell>
                <mxCell id="111" value="2 B tra loi ko di" style="edgeStyle=orthogonalEdgeStyle;html=1;align=left;spacingLeft=2;endArrow=block;rounded=0;entryX=1;entryY=0;dashed=1;" edge="1" target="110" parent="92">
                    <mxGeometry relative="1" as="geometry">
                        <mxPoint x="50" y="150" as="sourcePoint"/>
                        <Array as="points">
                            <mxPoint x="80" y="150"/>
                        </Array>
                    </mxGeometry>
                </mxCell>
                <mxCell id="117" value="" style="html=1;points=[];perimeter=orthogonalPerimeter;" vertex="1" parent="92">
                    <mxGeometry x="45" y="210" width="10" height="80" as="geometry"/>
                </mxCell>
                <mxCell id="100" value="fncB" style="shape=umlLifeline;perimeter=lifelinePerimeter;whiteSpace=wrap;html=1;container=1;collapsible=0;recursiveResize=0;outlineConnect=0;" vertex="1" parent="1">
                    <mxGeometry x="610" y="560" width="100" height="300" as="geometry"/>
                </mxCell>
                <mxCell id="104" value="" style="html=1;points=[];perimeter=orthogonalPerimeter;" vertex="1" parent="100">
                    <mxGeometry x="45" y="90" width="10" height="30" as="geometry"/>
                </mxCell>
                <mxCell id="103" style="edgeStyle=none;html=1;" edge="1" parent="1" source="102" target="100">
                    <mxGeometry relative="1" as="geometry"/>
                </mxCell>
                <mxCell id="108" value="1 ASK: di choi hog?" style="edgeLabel;html=1;align=center;verticalAlign=middle;resizable=0;points=[];" vertex="1" connectable="0" parent="103">
                    <mxGeometry x="-0.7416" y="-1" relative="1" as="geometry">
                        <mxPoint x="103" y="-6" as="offset"/>
                    </mxGeometry>
                </mxCell>
                <mxCell id="107" value="1.1 AWS: ko?" style="html=1;verticalAlign=bottom;endArrow=block;dashed=1;" edge="1" parent="1" source="100" target="92">
                    <mxGeometry width="80" relative="1" as="geometry">
                        <mxPoint x="570" y="709.29" as="sourcePoint"/>
                        <mxPoint x="650" y="709.29" as="targetPoint"/>
                        <Array as="points">
                            <mxPoint x="420" y="680"/>
                        </Array>
                    </mxGeometry>
                </mxCell>
                <mxCell id="112" value="fncC" style="shape=umlLifeline;perimeter=lifelinePerimeter;whiteSpace=wrap;html=1;container=1;collapsible=0;recursiveResize=0;outlineConnect=0;" vertex="1" parent="1">
                    <mxGeometry x="850" y="560" width="100" height="680" as="geometry"/>
                </mxCell>
                <mxCell id="113" value="" style="html=1;points=[];perimeter=orthogonalPerimeter;" vertex="1" parent="112">
                    <mxGeometry x="45" y="210" width="10" height="140" as="geometry"/>
                </mxCell>
                <mxCell id="114" style="edgeStyle=none;html=1;" edge="1" parent="1" target="112">
                    <mxGeometry relative="1" as="geometry">
                        <mxPoint x="365.25" y="770" as="sourcePoint"/>
                        <mxPoint x="654.75" y="770" as="targetPoint"/>
                    </mxGeometry>
                </mxCell>
                <mxCell id="115" value="2 ASK: di choi hog?" style="edgeLabel;html=1;align=center;verticalAlign=middle;resizable=0;points=[];" vertex="1" connectable="0" parent="114">
                    <mxGeometry x="-0.7416" y="-1" relative="1" as="geometry">
                        <mxPoint x="103" y="-6" as="offset"/>
                    </mxGeometry>
                </mxCell>
                <mxCell id="116" value="2.1 AWS: ko?" style="html=1;verticalAlign=bottom;endArrow=block;dashed=1;" edge="1" parent="1" source="112">
                    <mxGeometry width="80" relative="1" as="geometry">
                        <mxPoint x="667.71" y="800" as="sourcePoint"/>
                        <mxPoint x="372.2814285714284" y="800" as="targetPoint"/>
                        <Array as="points">
                            <mxPoint x="428.21" y="800"/>
                        </Array>
                    </mxGeometry>
                </mxCell>
                <mxCell id="118" value="async" style="shape=umlFrame;whiteSpace=wrap;html=1;" vertex="1" parent="1">
                    <mxGeometry x="220" y="740" width="840" height="270" as="geometry"/>
                </mxCell>
                <mxCell id="119" value="" style="endArrow=none;endFill=0;endSize=12;html=1;dashed=1;" edge="1" parent="1">
                    <mxGeometry width="160" relative="1" as="geometry">
                        <mxPoint x="220" y="920" as="sourcePoint"/>
                        <mxPoint x="1100" y="920" as="targetPoint"/>
                    </mxGeometry>
                </mxCell>
                <mxCell id="120" value="return" style="text;html=1;align=center;verticalAlign=middle;resizable=0;points=[];autosize=1;strokeColor=none;fillColor=none;" vertex="1" parent="1">
                    <mxGeometry x="220" y="930" width="50" height="20" as="geometry"/>
                </mxCell>
                <mxCell id="121" value="" style="html=1;points=[];perimeter=orthogonalPerimeter;" vertex="1" parent="1">
                    <mxGeometry x="360" y="840" width="10" height="200" as="geometry"/>
                </mxCell>
                <mxCell id="122" value="" style="html=1;points=[];perimeter=orthogonalPerimeter;" vertex="1" parent="1">
                    <mxGeometry x="895" y="910" width="10" height="100" as="geometry"/>
                </mxCell>
                <mxCell id="123" value="DDI" style="html=1;verticalAlign=bottom;endArrow=block;dashed=1;" edge="1" parent="1" target="121">
                    <mxGeometry width="80" relative="1" as="geometry">
                        <mxPoint x="895.4300000000001" y="960" as="sourcePoint"/>
                        <mxPoint x="600.0014285714285" y="960" as="targetPoint"/>
                        <Array as="points">
                            <mxPoint x="655.9300000000001" y="960"/>
                        </Array>
                    </mxGeometry>
                </mxCell>
            </root>
        </mxGraphModel>
    </diagram>
</mxfile>